<svg xmlns="http://www.w3.org/2000/svg" viewBox="2 2 60 60" fill="currentColor"><path fill-rule="evenodd" clip-rule="evenodd" d="M53.9447 26.4773L48.3124 21.2473V15.6875C48.3102 14.0057 47.6412 12.3934 46.4519 11.2042C45.2627 10.015 43.6504 9.34591 41.9686 9.34375H41.9043C41.6844 7.83468 40.929 6.45505 39.7762 5.45677C38.6233 4.45848 37.1499 3.90815 35.6249 3.90625H25.6561C23.0132 3.90937 20.4794 4.96065 18.6106 6.82947C16.7418 8.6983 15.6905 11.2321 15.6874 13.875V21.2473L10.055 26.4773C9.554 26.9434 9.15242 27.506 8.87442 28.1313C8.59643 28.7566 8.44776 29.4317 8.43737 30.1159L3.91699 59.9587L5.70774 60.2306L10.239 30.3243C10.2464 30.2791 10.25 30.2333 10.2499 30.1875C10.2505 29.7404 10.343 29.2982 10.5217 28.8884C10.7003 28.4785 10.9613 28.1097 11.2884 27.805L22.0855 17.78C22.2346 17.6413 22.4209 17.5492 22.6216 17.5149C22.8224 17.4806 23.0287 17.5056 23.2154 17.5869C23.4021 17.6683 23.561 17.8023 23.6726 17.9726C23.7842 18.143 23.8436 18.3422 23.8436 18.5458C23.8435 18.8325 23.7439 19.1102 23.5618 19.3315L15.8922 28.7076C15.7598 28.8695 15.6874 29.0721 15.6874 29.2812V37.4375H17.4999V33.4663L19.3405 32.5437C19.4063 34.1627 19.7845 35.7537 20.4542 37.2291C18.8231 39.391 16.5783 41.0111 14.0126 41.8781L13.5885 42.0195C13.4004 42.0821 13.238 42.2046 13.1262 42.3683C13.0144 42.532 12.9594 42.7278 12.9695 42.9258L13.8758 60.1445L15.6883 60.0484L15.2116 50.9995L19.6522 49.6121C21.8499 53.7418 26.6965 56.4688 31.9999 56.4688C37.3032 56.4688 42.1499 53.7418 44.3511 49.6093L48.7918 50.9968L48.3124 60.0457L50.1249 60.1418L51.0311 42.923C51.0412 42.7251 50.9862 42.5292 50.8744 42.3656C50.7626 42.2019 50.6002 42.0794 50.4121 42.0168L49.988 41.8754C47.423 41.0103 45.1783 39.3924 43.5464 37.2327C44.2157 35.7571 44.5939 34.1663 44.6602 32.5474L46.4999 33.4663V37.4375H48.3124V29.2812C48.3123 29.0721 48.24 28.8695 48.1075 28.7076L40.437 19.3315C40.2555 19.1099 40.1562 18.8323 40.1561 18.5458C40.1561 18.3423 40.2155 18.1432 40.3269 17.9729C40.4384 17.8026 40.5972 17.6685 40.7837 17.5871C40.9702 17.5058 41.1765 17.4806 41.3771 17.5147C41.5778 17.5488 41.7641 17.6407 41.9133 17.7791L52.7113 27.805C53.0384 28.1097 53.2994 28.4785 53.4781 28.8884C53.6567 29.2982 53.7492 29.7404 53.7499 30.1875C53.7498 30.2327 53.7534 30.2779 53.7607 30.3225L58.292 60.2288L60.0827 59.9569L55.5624 30.1159C55.552 29.4317 55.4033 28.7566 55.1253 28.1313C54.8473 27.506 54.4457 26.9434 53.9447 26.4773ZM40.2304 21.9461L42.8749 25.1741V32C42.8749 34.8842 41.7291 37.6503 39.6896 39.6898C37.6502 41.7292 34.8841 42.875 31.9999 42.875C29.1156 42.875 26.3495 41.7292 24.3101 39.6898C22.2706 37.6503 21.1249 34.8842 21.1249 32V25.1741L21.472 24.75H28.1211C29.9808 24.7439 31.7995 24.2034 33.3607 23.1929C34.922 22.1825 36.1599 20.7446 36.9271 19.0506L40.2304 21.9461ZM37.1655 47.3646L39.1592 47.9881C38.2308 48.9505 37.1179 49.716 35.887 50.2388C34.6562 50.7616 33.3326 51.031 31.9953 51.031C30.6581 51.031 29.3345 50.7616 28.1036 50.2388C26.8728 49.716 25.7599 48.9505 24.8314 47.9881L26.8252 47.3646C27.0108 47.3083 27.1735 47.194 27.2894 47.0383C27.4052 46.8827 27.468 46.694 27.4686 46.5V43.8365C30.3829 44.9711 33.6168 44.9711 36.5311 43.8365V46.5C36.5311 46.6929 36.5926 46.8807 36.7067 47.0362C36.8208 47.1917 36.9815 47.3067 37.1655 47.3646ZM17.4999 29.6048L19.3124 27.3899V30.5337L17.4999 31.4399V29.6048ZM14.8156 43.5148C17.3766 42.6065 19.6496 41.0328 21.4013 38.9555C22.4899 40.605 23.9464 41.9796 25.6561 42.9711V45.8339L15.111 49.1281L14.8156 43.5148ZM31.9999 54.6562C27.4895 54.6562 23.3769 52.4405 21.4176 49.0565L22.9528 48.5771C24.0528 49.9115 25.4344 50.986 26.9985 51.7236C28.5626 52.4613 30.2705 52.8438 31.9999 52.8438C33.7292 52.8438 35.4371 52.4613 37.0012 51.7236C38.5653 50.986 39.9469 49.9115 41.047 48.5771L42.5821 49.0565C40.6228 52.4405 36.5103 54.6562 31.9999 54.6562ZM49.1842 43.5148L48.8887 49.1336L38.3436 45.8339V42.9711C40.0528 41.98 41.5089 40.6061 42.5975 38.9573C44.3495 41.0344 46.6229 42.6074 49.1842 43.5148ZM46.4999 31.4399L44.6874 30.5337V27.3899L46.4999 29.6048V31.4399ZM41.2019 15.6875C40.5496 15.6887 39.9172 15.9127 39.4095 16.3224C38.9019 16.7322 38.5495 17.303 38.4107 17.9404L37.1274 16.8176C37.0124 16.7171 36.8739 16.6472 36.7247 16.6146C36.5755 16.5819 36.4204 16.5875 36.274 16.6308C36.1275 16.6741 35.9943 16.7537 35.8869 16.8623C35.7794 16.9708 35.7011 17.1048 35.6593 17.2517C35.1865 18.887 34.1963 20.325 32.8372 21.3501C31.4781 22.3752 29.8234 22.9322 28.1211 22.9375H22.9555L24.9656 20.4797C25.4119 19.9341 25.6559 19.2508 25.6561 18.5458C25.656 17.9895 25.4937 17.4454 25.1889 16.98C24.8841 16.5147 24.4502 16.1484 23.9403 15.9261C23.4303 15.7037 22.8666 15.635 22.3183 15.7283C21.7699 15.8217 21.2606 16.073 20.853 16.4515L17.4999 19.5644V13.875C17.5023 11.7126 18.3624 9.63938 19.8914 8.11031C21.4205 6.58124 23.4937 5.72115 25.6561 5.71875H35.6249C36.8262 5.72019 37.9779 6.19805 38.8274 7.04751C39.6768 7.89697 40.1547 9.04868 40.1561 10.25C40.1561 10.4904 40.2516 10.7209 40.4215 10.8908C40.5915 11.0608 40.822 11.1562 41.0624 11.1562H41.9686C43.1699 11.1577 44.3216 11.6355 45.1711 12.485C46.0206 13.3345 46.4984 14.4862 46.4999 15.6875V19.5644L43.1467 16.4506C42.6183 15.9595 41.9234 15.6868 41.2019 15.6875ZM33.8341 29.4824C33.8731 29.6529 33.9606 29.8085 34.086 29.9304C34.2114 30.0523 34.3694 30.1353 34.541 30.1694L39.0722 31.0756L39.4275 29.2994L36.8846 28.7901L38.8874 27.2875L37.7999 25.8375L34.1749 28.5563C34.0346 28.6612 33.9278 28.8045 33.8674 28.9689C33.8069 29.1333 33.7953 29.3116 33.8341 29.4824ZM25.1124 27.2875L26.1999 25.8375L29.8176 28.5563C29.9574 28.661 30.0639 28.804 30.1243 28.9679C30.1848 29.1318 30.1966 29.3097 30.1583 29.4801C30.12 29.6505 30.0332 29.8063 29.9085 29.9286C29.7837 30.0509 29.6263 30.1345 29.4551 30.1694L24.9239 31.0756L24.5686 29.2994L27.1152 28.7901L25.1124 27.2875Z"/></svg>